<svg id="bar-chart" xmlns="http://www.w3.org/2000/svg" width="24" height="24" viewBox="0 0 24 24">
  <g id="Group_12" data-name="Group 12" transform="translate(20.27)">
    <g id="Group_11" data-name="Group 11">
      <path id="Path_1" data-name="Path 1" d="M307.529.557A1.853,1.853,0,0,0,306.215,0H306.2a1.865,1.865,0,0,0-.015,3.729h.016A1.865,1.865,0,0,0,307.529.557ZM306.2,3.041h-.01A1.176,1.176,0,0,1,306.2.689h.01a1.176,1.176,0,0,1-.009,2.352Z" transform="translate(-304.335)" fill="#686868"/>
    </g>
  </g>
  <g id="Group_14" data-name="Group 14" transform="translate(0 10.135)">
    <g id="Group_13" data-name="Group 13">
      <path id="Path_2" data-name="Path 2" d="M1.88,152.168H1.865a1.865,1.865,0,0,0-.015,3.73h.016a1.865,1.865,0,0,0,.015-3.729Zm-.015,3.04h-.01a1.176,1.176,0,0,1,.009-2.352h.01a1.176,1.176,0,0,1-.009,2.352Z" transform="translate(0 -152.168)" fill="#686868"/>
    </g>
  </g>
  <g id="Group_16" data-name="Group 16" transform="translate(7.017 3.118)">
    <g id="Group_15" data-name="Group 15">
      <path id="Path_3" data-name="Path 3" d="M107.237,46.811h-.016a1.865,1.865,0,0,0-.015,3.729h.016a1.865,1.865,0,0,0,.015-3.729Zm-.015,3.041h-.01a1.176,1.176,0,0,1,.009-2.352h.01a1.176,1.176,0,0,1-.009,2.352Z" transform="translate(-105.357 -46.811)" fill="#686868"/>
    </g>
  </g>
  <g id="Group_18" data-name="Group 18" transform="translate(12.085 8.185)">
    <g id="Group_17" data-name="Group 17">
      <path id="Path_4" data-name="Path 4" d="M183.321,122.9h-.016a1.865,1.865,0,0,0-.015,3.729h.016a1.865,1.865,0,0,0,.015-3.729Zm-.015,3.041h-.01a1.176,1.176,0,0,1,.009-2.352h.01a1.176,1.176,0,0,1-.009,2.352Z" transform="translate(-181.441 -122.895)" fill="#686868"/>
    </g>
  </g>
  <g id="Group_20" data-name="Group 20" transform="translate(14.779 2.688)">
    <g id="Group_19" data-name="Group 19">
      <rect id="Rectangle_281" data-name="Rectangle 281" width="8.535" height="0.689" transform="matrix(0.706, -0.708, 0.708, 0.706, 0, 6.043)" fill="#686868"/>
    </g>
  </g>
  <g id="Group_22" data-name="Group 22" transform="translate(9.713 5.815)">
    <g id="Group_21" data-name="Group 21">
      <rect id="Rectangle_282" data-name="Rectangle 282" width="0.689" height="4.129" transform="translate(0 0.487) rotate(-45)" fill="#686868"/>
    </g>
  </g>
  <g id="Group_24" data-name="Group 24" transform="translate(2.696 5.814)">
    <g id="Group_23" data-name="Group 23">
      <rect id="Rectangle_283" data-name="Rectangle 283" width="6.884" height="0.689" transform="translate(0 4.867) rotate(-45)" fill="#686868"/>
    </g>
  </g>
  <g id="Group_26" data-name="Group 26" transform="translate(19.764 7.095)">
    <g id="Group_25" data-name="Group 25">
      <path id="Path_5" data-name="Path 5" d="M296.727,106.518v16.905h4.236V106.518Zm.689,16.216V107.207h2.858v15.527Z" transform="translate(-296.727 -106.518)" fill="#686868"/>
    </g>
  </g>
  <g id="Group_28" data-name="Group 28" transform="translate(13.176 14.189)">
    <g id="Group_27" data-name="Group 27">
      <path id="Path_6" data-name="Path 6" d="M197.818,213.035v9.811h4.236v-9.811Zm3.547,9.122h-2.858v-8.433h2.858Z" transform="translate(-197.818 -213.035)" fill="#686868"/>
    </g>
  </g>
  <g id="Group_30" data-name="Group 30" transform="translate(6.588 13.683)">
    <g id="Group_29" data-name="Group 29">
      <path id="Path_7" data-name="Path 7" d="M98.908,205.427v10.317h4.236V205.427Zm3.547,9.628H99.6v-8.939h2.858Z" transform="translate(-98.908 -205.427)" fill="#686868"/>
    </g>
  </g>
  <g id="Group_32" data-name="Group 32" transform="translate(0 16.216)">
    <g id="Group_31" data-name="Group 31">
      <path id="Path_8" data-name="Path 8" d="M0,243.469v7.784H4.236v-7.784Zm3.547,7.095H.689v-6.406H3.547S3.547,250.564,3.547,250.564Z" transform="translate(0 -243.469)" fill="#686868"/>
    </g>
  </g>
</svg>
