<svg xmlns="http://www.w3.org/2000/svg" width="21.094" height="24" viewBox="0 0 21.094 24">
  <g id="notification" transform="translate(-30.999)">
    <path id="Path_24" data-name="Path 24" d="M48.811,12.322V10.078a7.278,7.278,0,0,0-5.156-6.953V2.109a2.109,2.109,0,0,0-4.219,0V3.125a7.278,7.278,0,0,0-5.156,6.953v2.244A11.04,11.04,0,0,1,31.194,20a.7.7,0,0,0,.508,1.19h6.4a3.516,3.516,0,0,0,6.89,0h6.4A.7.7,0,0,0,51.9,20,11.04,11.04,0,0,1,48.811,12.322ZM40.843,2.109a.7.7,0,0,1,1.406,0v.737c-.231-.022-.466-.034-.7-.034s-.472.012-.7.034Zm.7,20.484a2.113,2.113,0,0,1-1.988-1.406h3.977a2.113,2.113,0,0,1-1.988,1.406Zm-8.328-2.813a12.432,12.432,0,0,0,2.469-7.46V10.078a5.859,5.859,0,1,1,11.719,0v2.244a12.432,12.432,0,0,0,2.469,7.46Z" fill="#686868"/>
    <path id="Path_25" data-name="Path 25" d="M392.376,59.171a.7.7,0,0,0,1.406,0,10.478,10.478,0,0,0-3.089-7.458.7.7,0,0,0-.994.994,9.081,9.081,0,0,1,2.677,6.463Z" transform="translate(-341.689 -49.092)" fill="#686868"/>
    <path id="Path_26" data-name="Path 26" d="M31.7,59.874a.7.7,0,0,0,.7-.7,9.081,9.081,0,0,1,2.677-6.463.7.7,0,1,0-.994-.994A10.478,10.478,0,0,0,31,59.171.7.7,0,0,0,31.7,59.874Z" transform="translate(-0.001 -49.093)" fill="#686868"/>
  </g>
</svg>
