<svg id="place" xmlns="http://www.w3.org/2000/svg" width="24" height="24" viewBox="0 0 24 24">
  <path id="Path_27" data-name="Path 27" d="M21.188,5.25a2.812,2.812,0,0,0-2.813,2.813V9h-3.39a10.125,10.125,0,0,0,1.7-4.313,4.688,4.688,0,0,0-9.375,0A10.125,10.125,0,0,0,9.015,9H5.625V8.063A2.813,2.813,0,1,0,0,8.063v2.625a.469.469,0,0,0,.938,0V8.063a1.875,1.875,0,1,1,3.75,0v11.03a2.807,2.807,0,0,0-3.75,0V14.437a.469.469,0,0,0-.938,0v6.75A2.89,2.89,0,0,0,2.946,24H21.187A2.816,2.816,0,0,0,24,21.187V8.062A2.816,2.816,0,0,0,21.187,5.25ZM19.313,8.063a1.875,1.875,0,0,1,3.75,0V19.08a2.74,2.74,0,0,0-1.133-.61,2.829,2.829,0,0,0-2.617.62V8.062Zm-.937,6.563h-6L7.453,9.938h2.13c1.023,1.635,2.031,2.986,2.042,3a.469.469,0,0,0,.751,0c.01-.014,1.019-1.365,2.042-3h3.958ZM12,.938a3.754,3.754,0,0,1,3.75,3.75c0,1.74-2.745,5.765-3.75,7.171C10.98,10.43,8.25,6.412,8.25,4.688A3.754,3.754,0,0,1,12,.938ZM.938,21.188a1.875,1.875,0,1,1,3.75,0,.469.469,0,0,0,.938,0V13.375l4.758,4.531L4.969,23.063H2.946A1.947,1.947,0,0,1,.938,21.188Zm10.448-2.942a.469.469,0,0,0,0-.679L5.625,12.08V9.938h.469l5.771,5.5a.469.469,0,0,0,.323.129h6.188v1.875H14.812a.469.469,0,0,0-.331.137L8.993,23.062H6.328Zm9.8,4.817H10.319l4.688-4.688h3.368v2.813a.469.469,0,1,0,.938,0,1.88,1.88,0,0,1,2.382-1.809,1.846,1.846,0,0,1,1.368,1.809,1.877,1.877,0,0,1-1.875,1.875Zm0,0" fill="#686868"/>
  <path id="Path_28" data-name="Path 28" d="M208.344,54.688A2.344,2.344,0,1,0,206,52.344,2.346,2.346,0,0,0,208.344,54.688Zm0-3.75a1.406,1.406,0,1,1-1.406,1.406A1.408,1.408,0,0,1,208.344,50.938Zm0,0" transform="translate(-196.344 -47.656)" fill="#686868"/>
  <path id="Path_29" data-name="Path 29" d="M.469,258.938A.469.469,0,1,0,0,258.469.469.469,0,0,0,.469,258.938Zm0,0" transform="translate(0 -245.906)" fill="#686868"/>
</svg>
