<svg xmlns="http://www.w3.org/2000/svg" width="24" height="24" viewBox="0 0 24 24">
  <g id="device" transform="translate(-2 -2)">
    <path id="Path_39" data-name="Path 39" d="M46.336,6.948a.4.4,0,0,0-.308-.148h-.352V2.4a.4.4,0,0,0-.4-.4h-8a.4.4,0,0,0-.4.4V6.8h-.352a.4.4,0,0,0-.308.148.4.4,0,0,0-.08.336l.348,1.6a.4.4,0,0,0,.392.316h8.8a.4.4,0,0,0,.392-.316l.348-1.6A.4.4,0,0,0,46.336,6.948ZM37.676,2.8h7.2v4h-2.8a.4.4,0,0,0-.4.4h-.8a.4.4,0,0,0-.4-.4h-2.8Zm7.68,5.6H37.2l-.172-.8h3.052a.4.4,0,0,0,.4.4h1.6a.4.4,0,0,0,.4-.4h3.052Z" transform="translate(-20.476 0)" fill="#007bff"/>
    <path id="Path_40" data-name="Path 40" d="M9.6,42H3.2A1.2,1.2,0,0,0,2,43.2v4a1.2,1.2,0,0,0,1.2,1.2H4.716l-.268,1.1a.393.393,0,0,0,.072.344A.4.4,0,0,0,4.836,50H7.964a.4.4,0,0,0,.316-.152.393.393,0,0,0,.072-.344l-.268-1.1H9.6a1.2,1.2,0,0,0,1.2-1.2v-4A1.2,1.2,0,0,0,9.6,42ZM5.344,49.2l.2-.8H7.26l.2.8ZM10,47.2a.4.4,0,0,1-.4.4H3.2a.4.4,0,0,1-.4-.4v-.4H10ZM10,46H2.8V43.2a.4.4,0,0,1,.4-.4H9.6a.4.4,0,0,1,.4.4Z" transform="translate(0 -24)" fill="#007bff"/>
    <path id="Path_41" data-name="Path 41" d="M52.4,40H49.2A1.2,1.2,0,0,0,48,41.2v6.4a1.2,1.2,0,0,0,1.2,1.2h3.2a1.2,1.2,0,0,0,1.2-1.2V41.2A1.2,1.2,0,0,0,52.4,40Zm-.8.8a.4.4,0,0,1-.4.4h-.8a.4.4,0,0,1-.4-.4Zm1.2,6.8a.4.4,0,0,1-.4.4H49.2a.4.4,0,0,1-.4-.4V41.2a.4.4,0,0,1,.4-.4A1.2,1.2,0,0,0,50.4,42h.8a1.2,1.2,0,0,0,1.2-1.2.4.4,0,0,1,.4.4Z" transform="translate(-27.6 -22.8)" fill="#007bff"/>
    <path id="Path_42" data-name="Path 42" d="M8,2H3.2A1.2,1.2,0,0,0,2,3.2V9.6a1.2,1.2,0,0,0,1.2,1.2H8A1.2,1.2,0,0,0,9.2,9.6V3.2A1.2,1.2,0,0,0,8,2Zm.4,7.6A.4.4,0,0,1,8,10H3.2a.4.4,0,0,1-.4-.4V3.2a.4.4,0,0,1,.4-.4H8a.4.4,0,0,1,.4.4Z" fill="#007bff"/>
    <rect id="Rectangle_284" data-name="Rectangle 284" width="0.8" height="0.8" transform="translate(5.2 8.4)" fill="#007bff"/>
    <path id="Path_43" data-name="Path 43" d="M29.448,24.24l-.96-.12.6-.764a.4.4,0,0,0-.036-.528l-1.076-1.076a.4.4,0,0,0-.528-.036l-.764.6-.12-.96a.405.405,0,0,0-.4-.352H24.64a.405.405,0,0,0-.4.352l-.12.96-.764-.6a.4.4,0,0,0-.528.036l-1.076,1.076a.4.4,0,0,0-.036.528l.6.764-.96.12a.405.405,0,0,0-.352.4v1.52a.405.405,0,0,0,.352.4l.96.12-.6.764a.4.4,0,0,0,.036.528l1.076,1.076a.4.4,0,0,0,.528.036l.764-.6.12.96a.405.405,0,0,0,.4.352h1.52a.405.405,0,0,0,.4-.352l.12-.96.764.6a.4.4,0,0,0,.528-.036l1.076-1.076a.4.4,0,0,0,.036-.528l-.6-.764.96-.12a.405.405,0,0,0,.352-.4V24.64a.405.405,0,0,0-.352-.4ZM29,25.808l-.948.12a.394.394,0,0,0-.328.268c-.036.1-.076.192-.12.284a.392.392,0,0,0,.044.42l.588.756-.58.58-.756-.588a.392.392,0,0,0-.42-.044,3.1,3.1,0,0,1-.288.12.4.4,0,0,0-.264.328l-.12.948h-.816l-.12-.948a.4.4,0,0,0-.264-.328,3.1,3.1,0,0,1-.288-.12.392.392,0,0,0-.42.044l-.756.588-.58-.58.588-.756a.392.392,0,0,0,.044-.42c-.044-.092-.084-.188-.12-.284a.394.394,0,0,0-.328-.268l-.948-.12v-.816l.948-.12a.394.394,0,0,0,.328-.268c.036-.1.076-.192.12-.284a.392.392,0,0,0-.044-.42l-.588-.756.58-.58.756.588a.392.392,0,0,0,.42.044c.092-.044.188-.084.284-.12a.394.394,0,0,0,.268-.328l.12-.948h.816l.12.948a.394.394,0,0,0,.268.328c.1.036.192.076.284.12a.392.392,0,0,0,.42-.044l.756-.588.58.58-.588.756a.392.392,0,0,0-.044.42c.044.092.084.188.12.284a.394.394,0,0,0,.328.268l.948.12Z" transform="translate(-11.4 -11.4)" fill="#007bff"/>
    <path id="Path_44" data-name="Path 44" d="M31,29a2,2,0,1,0-2,2A2,2,0,0,0,31,29Zm-2,1.2A1.2,1.2,0,1,1,30.2,29,1.2,1.2,0,0,1,29,30.2Z" transform="translate(-15 -15)" fill="#007bff"/>
    <path id="Path_45" data-name="Path 45" d="M45,25.2V26h1.6a.4.4,0,0,0,.4-.4V22h-.8v3.2Z" transform="translate(-25.8 -12)" fill="#007bff"/>
    <path id="Path_46" data-name="Path 46" d="M11,31.4v3.2h.8V31.8h2.4V31H11.4A.4.4,0,0,0,11,31.4Z" transform="translate(-5.4 -17.4)" fill="#007bff"/>
    <path id="Path_47" data-name="Path 47" d="M25.6,14.8h.8V12.4A.4.4,0,0,0,26,12H22v.8h3.6Z" transform="translate(-12 -6)" fill="#007bff"/>
    <path id="Path_48" data-name="Path 48" d="M31.8,45H31v3.2a.4.4,0,0,0,.4.4H37v-.8H31.8Z" transform="translate(-17.4 -25.8)" fill="#007bff"/>
  </g>
</svg>
