<svg xmlns="http://www.w3.org/2000/svg" width="22.939" height="24" viewBox="0 0 22.939 24">
  <g id="list-searching-variant" transform="translate(-3.957)">
    <path id="Path_23" data-name="Path 23" d="M16.117,9.122H6.663v-.77h9.454ZM6.663,12.552h7.282v-.775H6.663Zm0,2.654v.772h7.282v-.772Zm0,4.2h9.454v-.773H6.663Zm12.742,2.155,1.1-1.1a5.937,5.937,0,0,1-1.1-.154ZM4.859,18.717V3.4c0-2.313.187-2.5,2.5-2.5H19.271c2.315,0,2.5.188,2.5,2.5V8.394a6.06,6.06,0,0,1,.9.223V3.4c0-2.809-.6-3.4-3.4-3.4H7.359c-2.807,0-3.4.594-3.4,3.4V18.717c0,2.807.6,3.4,3.4,3.4H18.846v-.9H7.359C5.045,21.218,4.859,21.032,4.859,18.717Zm18.565.226a5.254,5.254,0,1,1,1.925-7.177A5.26,5.26,0,0,1,23.424,18.944Zm-.434-.752A4.385,4.385,0,1,0,17,16.584,4.391,4.391,0,0,0,22.99,18.192Zm1.755.426-2.259,1.307,1.739,3.01,2.259-1.306Zm1.975,3.423-2.259,1.306a1.3,1.3,0,1,0,2.259-1.306Z" fill="#686868"/>
  </g>
</svg>
